<svg width="20" height="20" viewBox="0 0 20 20" fill="none" xmlns="http://www.w3.org/2000/svg">
<path d="M14.031 11.28C15.3488 10.08 16.2015 8.4 16.2015 6.4C16.2015 2.88 13.4109 0 10 0C6.58915 0 3.79845 2.88 3.79845 6.4C3.79845 8.4 4.65116 10.08 5.96899 11.28C2.7907 12.8 0.387597 16.08 0 20H2.32558C2.86822 15.92 6.12403 12.8 10 12.8C13.876 12.8 17.1318 15.92 17.6744 20H20C19.6124 16.08 17.2093 12.8 14.031 11.28ZM6.12403 6.4C6.12403 4.16 7.82946 2.4 10 2.4C12.1705 2.4 13.876 4.16 13.876 6.4C13.876 8.64 12.1705 10.4 10 10.4C7.82946 10.4 6.12403 8.64 6.12403 6.4Z" fill="#252D35"/>
</svg>
