<svg width="239" height="360" viewBox="0 0 239 360" fill="none" xmlns="http://www.w3.org/2000/svg">
<path opacity="0.05" d="M239 360H2.52643V308.067L123.29 184.034C150.238 155.462 163.712 131.933 163.712 113.445C163.712 99.6639 159.333 88.5714 150.575 80.1681C142.154 71.7647 131.206 67.563 117.732 67.563C90.783 67.563 71.0768 81.3445 58.6131 108.908L0 74.6218C10.7794 50.7563 26.4433 32.437 46.9915 19.6639C67.8767 6.55463 91.1198 0 116.721 0C148.722 0 176.176 10.084 199.082 30.2521C221.989 50.084 233.442 76.9748 233.442 110.924C233.442 147.563 214.073 185.21 175.334 223.866L106.11 292.941H239V360Z" fill="#252D35"/>
</svg>
