<svg width="978" height="289" viewBox="0 0 978 289" fill="none" xmlns="http://www.w3.org/2000/svg">
<path d="M283.579 248.41H244.864C246.575 254.817 251.402 258.021 259.344 258.021C264.41 258.021 268.244 256.317 270.845 252.909L281.525 259.043C276.459 266.337 268.997 269.983 259.138 269.983C250.649 269.983 243.837 267.427 238.702 262.315C233.567 257.203 231 250.762 231 242.992C231 235.358 233.533 228.951 238.599 223.77C243.597 218.59 250.101 216 258.111 216C265.711 216 271.906 218.59 276.699 223.77C281.628 228.951 284.093 235.358 284.093 242.992C284.093 244.423 283.922 246.229 283.579 248.41ZM244.658 238.186H270.845C270.092 234.846 268.552 232.29 266.224 230.518C263.965 228.746 261.261 227.86 258.111 227.86C254.551 227.86 251.607 228.78 249.28 230.62C246.952 232.393 245.411 234.915 244.658 238.186Z" fill="#CBD3DC"/>
<path d="M323.225 216C330.14 216 336.027 218.624 340.888 223.873C345.818 229.121 348.282 235.494 348.282 242.992C348.282 250.626 345.818 257.033 340.888 262.213C336.096 267.393 330.208 269.983 323.225 269.983C316.036 269.983 310.491 267.495 306.588 262.52V289H293.341V217.431H306.588V223.464C310.491 218.488 316.036 216 323.225 216ZM310.594 253.42C313.264 256.078 316.652 257.408 320.76 257.408C324.868 257.408 328.257 256.078 330.927 253.42C333.665 250.694 335.035 247.218 335.035 242.992C335.035 238.766 333.665 235.324 330.927 232.665C328.257 229.939 324.868 228.576 320.76 228.576C316.652 228.576 313.264 229.939 310.594 232.665C307.923 235.324 306.588 238.766 306.588 242.992C306.588 247.218 307.923 250.694 310.594 253.42Z" fill="#CBD3DC"/>
<path d="M548.37 216C555.284 216 561.172 218.624 566.033 223.873C570.962 229.121 573.427 235.494 573.427 242.992C573.427 250.626 570.962 257.033 566.033 262.213C561.241 267.393 555.353 269.983 548.37 269.983C541.181 269.983 535.636 267.495 531.733 262.52V289H518.486V217.431H531.733V223.464C535.636 218.488 541.181 216 548.37 216ZM535.738 253.42C538.408 256.078 541.797 257.408 545.905 257.408C550.013 257.408 553.402 256.078 556.072 253.42C558.81 250.694 560.179 247.218 560.179 242.992C560.179 238.766 558.81 235.324 556.072 232.665C553.402 229.939 550.013 228.576 545.905 228.576C541.797 228.576 538.408 229.939 535.738 232.665C533.068 235.324 531.733 238.766 531.733 242.992C531.733 247.218 533.068 250.694 535.738 253.42Z" fill="#CBD3DC"/>
<path d="M687.951 217.431V256.181H694.729V282.252H681.789V268.552H649.954V282.252H637.015V256.181H643.279C646.223 251.818 647.695 245.786 647.695 238.084V217.431H687.951ZM657.451 256.181H675.011V229.291H660.634V238.084C660.634 245.445 659.573 251.478 657.451 256.181Z" fill="#CBD3DC"/>
<path d="M770.008 246.468L794.141 217.431H804V268.552H791.061V239.515L766.927 268.552H757.069V217.431H770.008V246.468Z" fill="#CBD3DC"/>
<path d="M62.1925 124C44.3093 124 29.4446 118.038 17.5984 106.115C5.86615 94.3059 0 79.6007 0 62C0 44.2857 5.86615 29.5806 17.5984 17.8846C29.4446 5.96154 44.3093 0 62.1925 0C73.0136 0 82.9803 2.55495 92.0928 7.66484C101.319 12.6612 108.495 19.4744 113.621 28.1044L93.2888 39.8571C90.3273 34.5201 86.1127 30.3755 80.6453 27.4231C75.1778 24.3571 69.0269 22.8242 62.1925 22.8242C50.5742 22.8242 41.1769 26.4579 34.0009 33.7253C26.9387 41.1062 23.4076 50.5311 23.4076 62C23.4076 73.3553 26.9387 82.7234 34.0009 90.1044C41.1769 97.3718 50.5742 101.005 62.1925 101.005C69.0269 101.005 75.1778 99.5293 80.6453 96.5769C86.2267 93.511 90.4412 89.3663 93.2888 84.1429L113.621 95.8956C108.495 104.526 101.319 111.396 92.0928 116.505C82.9803 121.502 73.0136 124 62.1925 124Z" fill="#E2E8ED"/>
<path d="M287.204 88.0604H222.79C225.638 98.7344 233.668 104.071 246.881 104.071C255.31 104.071 261.689 101.233 266.018 95.5549L283.787 105.775C275.358 117.925 262.942 124 246.54 124C232.415 124 221.082 119.742 212.539 111.225C203.996 102.709 199.724 91.978 199.724 79.033C199.724 66.315 203.939 55.641 212.368 47.011C220.683 38.381 231.504 34.0659 244.831 34.0659C257.475 34.0659 267.783 38.381 275.756 47.011C283.958 55.641 288.058 66.315 288.058 79.033C288.058 81.4176 287.774 84.4267 287.204 88.0604ZM222.449 71.0275H266.018C264.765 65.4634 262.202 61.2051 258.329 58.2528C254.57 55.3004 250.071 53.8242 244.831 53.8242C238.908 53.8242 234.01 55.3571 230.137 58.4231C226.264 61.3755 223.702 65.5769 222.449 71.0275Z" fill="#E2E8ED"/>
<path d="M346.843 78.522L382.211 121.615H356.582L325.486 82.9505V121.615H303.445V36.4506H325.486V73.9231L354.873 36.4506H381.186L346.843 78.522Z" fill="#E2E8ED"/>
<path d="M515.017 36.4506H554.998V121.615H533.47V95.044H525.781L506.133 121.615H480.675L502.032 92.489C496.565 90.2179 492.179 86.641 488.876 81.7582C485.687 76.8755 484.092 71.5385 484.092 65.7473C484.092 57.9121 486.939 51.0421 492.635 45.1374C498.216 39.3462 505.677 36.4506 515.017 36.4506ZM533.47 56.0385H516.726C513.536 56.0385 510.86 57.0037 508.695 58.9341C506.645 60.8645 505.62 63.3626 505.62 66.4286C505.62 69.4945 506.645 71.9359 508.695 73.7527C510.86 75.5696 513.536 76.478 516.726 76.478H533.47V56.0385Z" fill="#E2E8ED"/>
<path d="M793.678 63.7033H810.252C819.934 63.7033 827.736 66.3718 833.659 71.7088C839.582 76.9322 842.544 83.9157 842.544 92.6593C842.544 101.403 839.582 108.443 833.659 113.78C827.736 119.004 819.934 121.615 810.252 121.615H771.638V36.4506H793.678V63.7033ZM793.678 102.198H810.422C813.498 102.198 816.004 101.346 817.94 99.6429C819.991 97.826 821.016 95.4982 821.016 92.6593C821.016 89.8205 819.991 87.4927 817.94 85.6758C816.004 83.859 813.498 82.9505 810.422 82.9505H793.678V102.198Z" fill="#E2E8ED"/>
<path d="M977.146 88.0604H912.732C915.58 98.7344 923.61 104.071 936.823 104.071C945.252 104.071 951.631 101.233 955.959 95.5549L973.729 105.775C965.3 117.925 952.884 124 936.481 124C922.357 124 911.023 119.742 902.481 111.225C893.938 102.709 889.666 91.978 889.666 79.033C889.666 66.315 893.881 55.641 902.31 47.011C910.625 38.381 921.446 34.0659 934.773 34.0659C947.416 34.0659 957.725 38.381 965.698 47.011C973.899 55.641 978 66.315 978 79.033C978 81.4176 977.715 84.4267 977.146 88.0604ZM912.39 71.0275H955.959C954.706 65.4634 952.143 61.2051 948.271 58.2528C944.512 55.3004 940.013 53.8242 934.773 53.8242C928.85 53.8242 923.952 55.3571 920.079 58.4231C916.206 61.3755 913.643 65.5769 912.39 71.0275Z" fill="#E2E8ED"/>
<path d="M120 37H195.696V57.9997H169.04V121.676H146.998V57.9997H120V37Z" fill="#E2E8ED"/>
<path d="M398.83 37H466.496V121.676H444.453V57.9997H420.873V86.2814C420.873 112.362 408.855 124.16 384.819 121.676V101.184C389.376 102.313 392.85 101.523 395.242 98.8135C397.634 96.1039 398.83 91.5314 398.83 85.096V37Z" fill="#E2E8ED"/>
<path d="M631.124 69.0075V37H653.166V121.676H631.124V89.4991H597.12V121.676H575.077V37H597.12V69.0075H631.124Z" fill="#E2E8ED"/>
<path d="M729.409 69.0075V37H751.451V109H729.409V89.4991H695.405V121.676H673.362V37H695.405V69.0075H729.409Z" fill="#E2E8ED"/>
<path d="M851.957 121.676V37H874V121.676H851.957Z" fill="#E2E8ED"/>
<path d="M175 217.432H221.861V268.568H208.634V229.807H188.228V268.568H175V217.432Z" fill="#CBD3DC"/>
<path d="M407.587 248.42H368.929C370.638 254.83 375.458 258.034 383.388 258.034C388.446 258.034 392.275 256.33 394.872 252.92L405.537 259.057C400.478 266.352 393.027 270 383.183 270C374.706 270 367.904 267.443 362.777 262.33C357.65 257.216 355.086 250.773 355.086 243C355.086 235.364 357.616 228.955 362.674 223.773C367.665 218.591 374.159 216 382.157 216C389.745 216 395.932 218.591 400.717 223.773C405.639 228.955 408.1 235.364 408.1 243C408.1 244.432 407.929 246.239 407.587 248.42ZM368.724 238.193H394.872C394.12 234.852 392.582 232.295 390.258 230.523C388.002 228.75 385.302 227.864 382.157 227.864C378.602 227.864 375.663 228.784 373.339 230.625C371.014 232.398 369.476 234.92 368.724 238.193Z" fill="#CBD3DC"/>
<path d="M417.334 217.432H452.404V230.114H430.562V268.568H417.334V217.432Z" fill="#CBD3DC"/>
<path d="M501.173 262.227C495.977 267.409 489.551 270 481.895 270C474.238 270 467.812 267.409 462.617 262.227C457.422 257.045 454.824 250.636 454.824 243C454.824 235.432 457.422 229.057 462.617 223.875C467.881 218.625 474.307 216 481.895 216C489.483 216 495.909 218.625 501.173 223.875C506.436 229.125 509.068 235.5 509.068 243C509.068 250.568 506.436 256.977 501.173 262.227ZM471.948 253.125C474.614 255.784 477.93 257.114 481.895 257.114C485.86 257.114 489.175 255.784 491.841 253.125C494.507 250.466 495.84 247.091 495.84 243C495.84 238.909 494.507 235.534 491.841 232.875C489.175 230.216 485.86 228.886 481.895 228.886C477.93 228.886 474.614 230.216 471.948 232.875C469.351 235.602 468.052 238.977 468.052 243C468.052 247.023 469.351 250.398 471.948 253.125Z" fill="#CBD3DC"/>
<path d="M626.245 262.227C621.05 267.409 614.624 270 606.967 270C599.311 270 592.885 267.409 587.69 262.227C582.494 257.045 579.896 250.636 579.896 243C579.896 235.432 582.494 229.057 587.69 223.875C592.953 218.625 599.379 216 606.967 216C614.555 216 620.981 218.625 626.245 223.875C631.509 229.125 634.141 235.5 634.141 243C634.141 250.568 631.509 256.977 626.245 262.227ZM597.021 253.125C599.687 255.784 603.002 257.114 606.967 257.114C610.932 257.114 614.248 255.784 616.914 253.125C619.58 250.466 620.913 247.091 620.913 243C620.913 238.909 619.58 235.534 616.914 232.875C614.248 230.216 610.932 228.886 606.967 228.886C603.002 228.886 599.687 230.216 597.021 232.875C594.423 235.602 593.124 238.977 593.124 243C593.124 247.023 594.423 250.398 597.021 253.125Z" fill="#CBD3DC"/>
<path d="M728.774 242.693L750 268.568H734.619L715.956 245.352V268.568H702.728V217.432H715.956V239.932L733.593 217.432H749.385L728.774 242.693Z" fill="#CBD3DC"/>
</svg>
