<svg width="40" height="40" viewBox="0 0 40 40" fill="none" xmlns="http://www.w3.org/2000/svg">
<rect x="1" y="1" width="38" height="38" fill="white" stroke="#252D35" stroke-width="2"/>
<path d="M26.7867 22.8117C25.7411 21.7661 24.4965 20.992 23.1387 20.5235C24.593 19.5218 25.5484 17.8455 25.5484 15.9499C25.5484 12.8896 23.0587 10.3999 19.9984 10.3999C16.9382 10.3999 14.4484 12.8896 14.4484 15.9499C14.4484 17.8455 15.4039 19.5218 16.8583 20.5235C15.5004 20.992 14.2558 21.7661 13.2102 22.8117C11.397 24.6249 10.3984 27.0357 10.3984 29.5999H11.8984C11.8984 25.1335 15.5321 21.4999 19.9984 21.4999C24.4648 21.4999 28.0984 25.1335 28.0984 29.5999H29.5984C29.5984 27.0357 28.5998 24.6249 26.7867 22.8117ZM19.9984 19.9999C17.7653 19.9999 15.9484 18.1831 15.9484 15.9499C15.9484 13.7167 17.7653 11.8999 19.9984 11.8999C22.2316 11.8999 24.0484 13.7167 24.0484 15.9499C24.0484 18.1831 22.2316 19.9999 19.9984 19.9999Z" fill="#252D35"/>
</svg>
