<svg width="280" height="58" viewBox="0 0 280 58" fill="none" xmlns="http://www.w3.org/2000/svg">
<path d="M61.8115 51.6382C61.8115 50.2646 60.8605 49.3665 59.5926 49.3665C58.3775 49.3665 57.4266 50.2646 57.4266 51.6382C57.4266 53.0118 58.3775 53.9099 59.5926 53.9099C60.8605 53.9099 61.8115 53.0118 61.8115 51.6382ZM63.0266 51.6382C63.0266 53.5929 61.653 54.9137 59.7511 54.9137C58.853 54.9137 58.0077 54.5439 57.4794 53.8571V57.1854H56.3171V48.4156H57.4266V49.4722C57.9549 48.7326 58.8002 48.4156 59.7511 48.4156C61.653 48.3628 63.0266 49.6835 63.0266 51.6382Z" fill="#252D35"/>
<path d="M68.5737 52.9057V52.0076H66.7775C65.6152 52.0076 65.2983 52.4831 65.2983 53.0114C65.2983 53.6453 65.8266 54.068 66.7247 54.068C67.5699 54.068 68.3096 53.6453 68.5737 52.9057ZM69.7888 51.0038V54.9132H68.6794V54.068C68.3096 54.6491 67.5699 54.9661 66.5662 54.9661C65.0869 54.9661 64.136 54.1736 64.136 53.0642C64.136 52.0076 64.8228 51.1623 66.7775 51.1623H68.6266V50.951C68.6266 49.9472 68.0454 49.4189 66.8832 49.4189C66.0907 49.4189 65.2983 49.6831 64.8228 50.1057L64.3473 49.2076C65.0341 48.6793 65.985 48.3623 67.0416 48.3623C68.785 48.3623 69.7888 49.2076 69.7888 51.0038Z" fill="#252D35"/>
<path d="M76.657 53.0114C76.657 54.1736 75.3362 54.9661 73.6457 54.9661C72.6947 54.9661 71.7438 54.7019 71.0042 54.2265L71.374 53.3283C72.0079 53.751 72.8532 53.9623 73.6457 53.9623C74.7551 53.9623 75.4947 53.5397 75.4947 52.9057C75.4947 52.3246 74.9136 51.9548 73.9626 51.9548H72.7475V51.1095H73.857C74.7023 51.1095 75.2834 50.7925 75.2834 50.2642C75.2834 49.6831 74.5966 49.3661 73.6457 49.3661C72.9589 49.3661 72.3249 49.5246 71.5853 49.8415L71.2683 48.9434C72.1136 48.5208 72.906 48.3623 73.7513 48.3623C75.3362 48.3623 76.4985 49.0491 76.4985 50.1057C76.4985 50.7397 76.023 51.268 75.3362 51.5321C76.1815 51.7434 76.657 52.2717 76.657 53.0114Z" fill="#252D35"/>
<path d="M79.2455 53.8565H82.8908V49.4715H80.0908L80.038 50.6866C79.9852 52.0074 79.8267 53.3282 79.2455 53.8565ZM85.0569 53.8565V56.3923H83.9474V54.9131H78.5059V56.3923H77.3965V53.8565H77.7135C78.6644 53.8036 78.8229 52.2187 78.8757 50.6338L78.9814 48.4678H84.0531V53.8565H85.0569Z" fill="#252D35"/>
<path d="M91.1325 53.0113C91.1325 52.3245 90.7099 52.0075 89.7589 52.0075H87.8042V53.9622H89.7061C90.657 53.9622 91.1325 53.6981 91.1325 53.0113ZM87.7514 51.215H89.4948C90.3929 51.215 90.8684 50.8981 90.8684 50.2641C90.8684 49.6301 90.3929 49.366 89.4948 49.366H87.7514V51.215ZM92.2948 53.1169C92.2948 54.2264 91.4495 54.9132 89.7061 54.9132H86.5891V48.415H89.6004C91.1325 48.415 92.0306 48.9962 92.0306 50.0528C92.0306 50.7396 91.6608 51.2679 90.974 51.4792C91.925 51.7433 92.2948 52.2716 92.2948 53.1169Z" fill="#252D35"/>
<path d="M94.1438 48.415H95.3589V53.1169L99.3212 48.415H100.378V54.8603H99.2155V50.1584L95.2532 54.8603H94.1438V48.415Z" fill="#252D35"/>
<path d="M108.619 52.166H107.351V54.8603H106.136V52.166H104.868L103.125 54.8603H101.698L103.917 51.532L101.857 48.415H103.125L104.868 51.1622H106.136V48.415H107.351V51.1622H108.619L110.362 48.415H111.63L109.57 51.532L111.789 54.8603H110.415L108.619 52.166Z" fill="#252D35"/>
<path d="M113.11 48.415H114.272V51.1622H117.97V48.415H119.185V54.8603H117.97V52.166H114.272V54.8603H113.11V48.415Z" fill="#252D35"/>
<path d="M127.902 48.415H129.064V54.8603H127.902V48.415ZM125.736 52.6943C125.736 51.849 125.208 51.4792 124.098 51.4792H122.619V54.015H124.098C125.155 54.015 125.736 53.5924 125.736 52.6943ZM126.951 52.6943C126.951 54.0679 125.947 54.8603 124.204 54.8603H121.457V48.415H122.619V50.5811H124.362C126.053 50.6339 126.951 51.3735 126.951 52.6943Z" fill="#252D35"/>
<path d="M131.97 51.215H136.144C136.038 50.1584 135.193 49.366 134.03 49.366C132.921 49.366 132.076 50.1056 131.97 51.215ZM137.253 52.0603H131.97C132.129 53.1698 133.027 53.9622 134.347 53.9622C135.087 53.9622 135.774 53.6981 136.249 53.1698L136.883 53.9094C136.302 54.5962 135.404 54.966 134.295 54.966C132.181 54.966 130.808 53.5924 130.808 51.6905C130.808 49.7886 132.181 48.415 134.083 48.415C135.985 48.415 137.306 49.7358 137.306 51.7433C137.253 51.7962 137.253 51.9547 137.253 52.0603Z" fill="#252D35"/>
<path d="M141.796 51.6378C141.796 49.7359 143.223 48.3623 145.23 48.3623C146.393 48.3623 147.344 48.8378 147.872 49.7359L146.974 50.317C146.551 49.6831 145.917 49.4189 145.23 49.4189C143.962 49.4189 143.011 50.317 143.011 51.6906C143.011 53.0642 143.962 53.9623 145.23 53.9623C145.917 53.9623 146.604 53.6453 146.974 53.0642L147.872 53.6453C147.344 54.5434 146.393 55.0189 145.23 55.0189C143.223 54.9661 141.796 53.5925 141.796 51.6378Z" fill="#252D35"/>
<path d="M154.159 49.4716H151.781V54.8603H150.619V49.4716H148.242V48.415H154.159V49.4716Z" fill="#252D35"/>
<path d="M155.691 51.215H159.864C159.759 50.1584 158.913 49.366 157.751 49.366C156.642 49.366 155.796 50.1056 155.691 51.215ZM160.974 52.0603H155.691C155.849 53.1698 156.747 53.9622 158.068 53.9622C158.808 53.9622 159.495 53.6981 159.97 53.1698L160.604 53.9094C160.023 54.5962 159.125 54.966 158.015 54.966C155.902 54.966 154.529 53.5924 154.529 51.6905C154.529 49.7886 155.902 48.415 157.804 48.415C159.706 48.415 161.027 49.7358 161.027 51.7433C160.974 51.7962 160.974 51.9547 160.974 52.0603Z" fill="#252D35"/>
<path d="M162.823 48.415H163.985V51.1622H167.683V48.415H168.846V54.8603H167.683V52.166H163.985V54.8603H162.823V48.415Z" fill="#252D35"/>
<path d="M177.615 48.415H178.778V54.8603H177.615V48.415ZM175.449 52.6943C175.449 51.849 174.921 51.4792 173.812 51.4792H172.332V54.015H173.812C174.868 54.015 175.449 53.5924 175.449 52.6943ZM176.612 52.6943C176.612 54.0679 175.608 54.8603 173.864 54.8603H171.117V48.415H172.279V50.5811H174.023C175.766 50.6339 176.612 51.3735 176.612 52.6943Z" fill="#252D35"/>
<path d="M184.378 48.415H185.54V53.1169L189.555 48.415H190.612V54.8603H189.449V50.1584L185.487 54.8603H184.378V48.415Z" fill="#252D35"/>
<path d="M202.234 48.415V54.8603H201.072V49.4716H197.374V54.8603H196.211V48.415H202.234Z" fill="#252D35"/>
<path d="M205.087 51.215H209.261C209.155 50.1584 208.31 49.366 207.147 49.366C206.038 49.366 205.246 50.1056 205.087 51.215ZM210.37 52.0603H205.087C205.246 53.1698 206.144 53.9622 207.464 53.9622C208.204 53.9622 208.838 53.6981 209.366 53.1698L210 53.9094C209.419 54.5962 208.521 54.966 207.412 54.966C205.298 54.966 203.925 53.5924 203.925 51.6905C203.925 49.7886 205.298 48.415 207.2 48.415C209.102 48.415 210.423 49.7358 210.423 51.7433C210.423 51.7962 210.37 51.9547 210.37 52.0603Z" fill="#252D35"/>
<path d="M217.766 51.6382C217.766 50.2646 216.815 49.3665 215.547 49.3665C214.332 49.3665 213.381 50.2646 213.381 51.6382C213.381 53.0118 214.332 53.9099 215.547 53.9099C216.815 53.9099 217.766 53.0118 217.766 51.6382ZM218.981 51.6382C218.981 53.5929 217.608 54.9137 215.706 54.9137C214.808 54.9137 213.963 54.5439 213.434 53.8571V57.1854H212.272V48.4156H213.381V49.4722C213.91 48.7326 214.755 48.4156 215.706 48.4156C217.608 48.3628 218.981 49.6835 218.981 51.6382Z" fill="#252D35"/>
<path d="M221.253 51.215H225.427C225.321 50.1584 224.476 49.366 223.313 49.366C222.204 49.366 221.359 50.1056 221.253 51.215ZM226.536 52.0603H221.253C221.412 53.1698 222.31 53.9622 223.63 53.9622C224.37 53.9622 225.004 53.6981 225.532 53.1698L226.166 53.9094C225.585 54.5962 224.687 54.966 223.578 54.966C221.464 54.966 220.091 53.5924 220.091 51.6905C220.091 49.7886 221.464 48.415 223.366 48.415C225.268 48.415 226.589 49.7358 226.589 51.7433C226.536 51.7962 226.536 51.9547 226.536 52.0603Z" fill="#252D35"/>
<path d="M233.193 49.4716H229.548V54.8603H228.385V48.415H233.193V49.4716Z" fill="#252D35"/>
<path d="M239.057 51.6378C239.057 50.2642 238.106 49.3661 236.891 49.3661C235.623 49.3661 234.672 50.2642 234.672 51.6378C234.672 53.0114 235.623 53.9095 236.891 53.9095C238.159 53.9095 239.057 53.0114 239.057 51.6378ZM233.51 51.6378C233.51 49.7359 234.936 48.3623 236.891 48.3623C238.846 48.3623 240.272 49.7359 240.272 51.6378C240.272 53.5397 238.846 54.9132 236.891 54.9132C234.936 54.9661 233.51 53.5925 233.51 51.6378Z" fill="#252D35"/>
<path d="M247.51 51.6382C247.51 50.2646 246.559 49.3665 245.291 49.3665C244.076 49.3665 243.125 50.2646 243.125 51.6382C243.125 53.0118 244.076 53.9099 245.291 53.9099C246.559 53.9099 247.51 53.0118 247.51 51.6382ZM248.725 51.6382C248.725 53.5929 247.351 54.9137 245.449 54.9137C244.551 54.9137 243.706 54.5439 243.178 53.8571V57.1854H242.015V48.4156H243.125V49.4722C243.653 48.7326 244.498 48.4156 245.449 48.4156C247.351 48.3628 248.725 49.6835 248.725 51.6382Z" fill="#252D35"/>
<path d="M255.381 51.6378C255.381 50.2642 254.43 49.3661 253.215 49.3661C251.947 49.3661 250.996 50.2642 250.996 51.6378C250.996 53.0114 251.947 53.9095 253.215 53.9095C254.483 53.9095 255.381 53.0114 255.381 51.6378ZM249.834 51.6378C249.834 49.7359 251.261 48.3623 253.215 48.3623C255.17 48.3623 256.596 49.7359 256.596 51.6378C256.596 53.5397 255.17 54.9132 253.215 54.9132C251.261 54.9661 249.834 53.5925 249.834 51.6378Z" fill="#252D35"/>
<path d="M259.027 53.8565H262.672V49.4715H259.872L259.819 50.6866C259.766 52.0074 259.608 53.3282 259.027 53.8565ZM264.838 53.8565V56.3923H263.781V54.9131H258.34V56.3923H257.23V53.8565H257.6C258.551 53.8036 258.71 52.2187 258.763 50.6338L258.868 48.4678H263.94V53.8565H264.838Z" fill="#252D35"/>
<path d="M268.906 52.166H267.585V54.8603H266.423V48.415H267.585V51.1622H268.959L271.072 48.415H272.34L269.857 51.532L272.498 54.8603H271.125L268.906 52.166Z" fill="#252D35"/>
<path d="M273.766 48.415H274.929V53.1169L278.891 48.415H280V54.8603H278.785V50.1584L274.823 54.8603H273.766V48.415Z" fill="#252D35"/>
<path d="M56.4229 1.7666H74.6493V5.25339H60.0681V16.5591H74.6493V20.0458H60.0681V37.6911H56.4229V1.7666Z" fill="#252D35"/>
<path d="M99.7437 4.35505C97.0493 4.35505 94.5135 5.04185 92.0833 6.41543C89.6531 7.78901 87.804 9.6909 86.4305 12.0154C85.0569 14.34 84.4229 16.9815 84.4229 19.8871C84.4229 24.1664 85.9022 27.7588 88.9135 30.7173C91.9248 33.6758 95.5173 35.1551 99.7437 35.1551C102.544 35.1551 105.185 34.4683 107.563 33.1475C109.94 31.7739 111.842 29.9249 113.163 27.6003C114.483 25.2758 115.17 22.6343 115.17 19.7815C115.17 16.9286 114.483 14.34 113.163 12.0154C111.842 9.6909 109.94 7.84185 107.457 6.46826C105.027 5.04185 102.438 4.35505 99.7437 4.35505ZM99.5324 0.81543C105.027 0.81543 109.676 2.61166 113.374 6.25694C117.072 9.90222 118.921 14.34 118.921 19.6758C118.921 24.9588 117.072 29.3966 113.374 33.0947C109.676 36.74 105.132 38.589 99.8493 38.589C94.4606 38.589 89.9173 36.74 86.1663 33.0947C82.4682 29.4494 80.6191 25.0117 80.6191 19.8343C80.6191 16.4003 81.4644 13.1777 83.155 10.2192C84.8456 7.26071 87.1701 4.93618 90.0757 3.29845C92.9814 1.66071 96.1512 0.81543 99.5324 0.81543Z" fill="#252D35"/>
<path d="M127.532 1.7666H131.178V34.2572H145.125V37.6911H127.532V1.7666Z" fill="#252D35"/>
<path d="M194.257 1.29102H190.506V38.4835H194.257V1.29102Z" fill="#252D35"/>
<path d="M277.676 7.78892L274.876 10.4304C272.868 8.47571 270.649 6.94364 268.219 5.93986C265.789 4.93609 263.464 4.40779 261.14 4.40779C258.287 4.40779 255.593 5.09458 253.004 6.46816C250.415 7.84175 248.408 9.74364 246.981 12.121C245.555 14.4984 244.868 16.9814 244.868 19.6229C244.868 22.3172 245.608 24.9059 247.087 27.3361C248.566 29.7663 250.574 31.6682 253.163 33.0946C255.751 34.4682 258.604 35.2078 261.668 35.2078C265.419 35.2078 268.589 34.1512 271.178 32.0908C273.766 30.0304 275.298 27.2833 275.774 23.955H264.151V20.4682H279.842C279.789 26.0153 278.151 30.4531 274.823 33.7285C271.495 37.004 267.11 38.6418 261.563 38.6418C254.853 38.6418 249.517 36.3701 245.608 31.8267C242.597 28.3399 241.064 24.3248 241.064 19.7285C241.064 16.3474 241.91 13.1776 243.653 10.2191C245.397 7.26062 247.774 4.98892 250.785 3.35118C253.797 1.71345 257.23 0.868164 261.034 0.868164C264.098 0.868164 267.004 1.39647 269.751 2.5059C272.393 3.61533 275.087 5.35873 277.676 7.78892Z" fill="#252D35"/>
<path d="M204.136 5.67563V1.44922H204.981L233.668 34.7851V38.5888H232.823L204.136 5.67563Z" fill="#252D35"/>
<path d="M233.668 5.78129V29.819L229.917 25.487V1.44922L233.668 5.78129Z" fill="#252D35"/>
<path d="M204.136 34.0463V10.6953L208.045 15.1859V38.5897L204.136 34.0463Z" fill="#252D35"/>
<path d="M179.834 9.37424C177.827 6.36292 175.08 4.24972 171.54 3.03462C169.11 2.18934 165.148 1.71387 159.706 1.71387H152.574L155.691 5.25349H158.28C163.51 5.25349 167.261 5.57047 169.532 6.25726C172.544 7.15538 174.921 8.84594 176.612 11.329C178.302 13.812 179.147 16.7705 179.147 20.2044C179.147 23.5327 178.355 26.3327 176.823 28.6044C175.238 30.8761 173.125 32.461 170.378 33.3592C168.423 33.9931 164.936 34.3101 159.917 34.3101H155.691V10.5893L152.204 6.62707V37.7441H163.774C168.317 37.7441 171.857 37.1101 174.34 35.7893C176.876 34.4686 178.883 32.461 180.468 29.7139C182.053 26.9667 182.846 23.7969 182.846 20.2044C182.793 16.0308 181.842 12.4384 179.834 9.37424Z" fill="#252D35"/>
<path d="M1.16213 52.9588C1.37345 53.1701 1.6376 53.2758 1.95458 53.2758C2.27156 53.2758 2.53571 53.1701 2.74703 52.9588C2.95835 52.7475 3.06401 52.4833 3.06401 52.1135C3.06401 51.7965 2.95835 51.4796 2.74703 51.2682C2.53571 51.0569 2.27156 50.9513 1.95458 50.9513C1.6376 50.9513 1.37345 51.0569 1.16213 51.2682C0.950804 51.4796 0.845144 51.7437 0.845144 52.1135C0.845144 52.4833 0.950804 52.7475 1.16213 52.9588ZM3.27533 53.4343C2.90552 53.8041 2.48288 53.9626 2.00741 53.9626C1.53194 53.9626 1.05646 53.8041 0.739484 53.4343C0.369672 53.0645 0.211182 52.6418 0.211182 52.1663C0.211182 51.638 0.369672 51.2154 0.739484 50.8984C1.10929 50.5286 1.53194 50.3701 2.00741 50.3701C2.48288 50.3701 2.95835 50.5286 3.27533 50.8984C3.64514 51.2682 3.80364 51.6909 3.80364 52.1663C3.80364 52.6946 3.59231 53.1173 3.27533 53.4343Z" fill="#252D35"/>
<path d="M6.07537 53.9628C5.54707 53.9628 5.12443 53.8043 4.75462 53.4345C4.43764 53.0646 4.22632 52.642 4.22632 52.1137C4.22632 51.5854 4.38481 51.1628 4.75462 50.793C5.0716 50.4231 5.54707 50.2646 6.07537 50.2646C6.39236 50.2646 6.70934 50.3175 6.97349 50.476C7.23764 50.6345 7.44896 50.8458 7.60745 51.0571L7.02632 51.4269C6.92066 51.2684 6.815 51.1628 6.65651 51.0571C6.49802 50.9514 6.33953 50.8986 6.12821 50.8986C5.81122 50.8986 5.49424 51.0043 5.28292 51.2156C5.0716 51.4269 4.96594 51.6911 4.96594 52.0609C4.96594 52.3779 5.0716 52.6948 5.28292 52.9062C5.49424 53.1175 5.75839 53.2231 6.12821 53.2231C6.33953 53.2231 6.49802 53.1703 6.65651 53.0647C6.815 52.959 6.92066 52.8533 7.02632 52.6948L7.55462 53.1703C7.39613 53.4345 7.18481 53.6458 6.92066 53.7514C6.65651 53.9099 6.39236 53.9628 6.07537 53.9628Z" fill="#252D35"/>
<path d="M10.0906 50.4229H10.7773V53.9096H10.0906V52.4832H8.7698V53.9096H8.08301V50.4229H8.7698V51.7964H10.0906V50.4229Z" fill="#252D35"/>
<path d="M12.4149 52.9588C12.6262 53.1701 12.8904 53.2758 13.2074 53.2758C13.5243 53.2758 13.7885 53.1701 13.9998 52.9588C14.2111 52.7475 14.3168 52.4833 14.3168 52.1135C14.3168 51.7965 14.2111 51.4796 13.9998 51.2682C13.7885 51.0569 13.5243 50.9513 13.2074 50.9513C12.8904 50.9513 12.6262 51.0569 12.4149 51.2682C12.2036 51.4796 12.0979 51.7437 12.0979 52.1135C12.0979 52.4833 12.2036 52.7475 12.4149 52.9588ZM14.4753 53.4343C14.1055 53.8041 13.6828 53.9626 13.2074 53.9626C12.7319 53.9626 12.2564 53.8041 11.9394 53.4343C11.5696 53.0645 11.4111 52.6418 11.4111 52.1663C11.4111 51.638 11.5696 51.2154 11.9394 50.8984C12.3092 50.5286 12.7319 50.3701 13.2074 50.3701C13.6828 50.3701 14.1583 50.5286 14.4753 50.8984C14.8451 51.2682 15.0036 51.6909 15.0036 52.1663C15.0036 52.6946 14.8451 53.1173 14.4753 53.4343Z" fill="#252D35"/>
<path d="M17.1169 53.2757C17.2226 53.2757 17.3283 53.2229 17.3811 53.17C17.4339 53.1172 17.4868 53.0115 17.4868 52.853C17.4868 52.7474 17.4339 52.6417 17.3811 52.5361C17.3283 52.4832 17.2226 52.4304 17.1169 52.4304H16.3245V53.2757H17.1169ZM17.0113 51.0568H16.3245V51.8493H17.0113C17.1169 51.8493 17.2226 51.7964 17.2754 51.7436C17.3283 51.6908 17.3811 51.5851 17.3811 51.4795C17.3811 51.3738 17.3283 51.2681 17.2754 51.2153C17.2226 51.1096 17.1169 51.0568 17.0113 51.0568ZM17.7509 52.1134C18.0679 52.2719 18.2264 52.5361 18.2264 52.9059C18.2264 53.2229 18.1207 53.4342 17.9094 53.6455C17.6981 53.8568 17.4339 53.9096 17.1169 53.9096H15.6377V50.4229H17.0113C17.3283 50.4229 17.5396 50.5285 17.7509 50.687C17.9622 50.8455 18.0679 51.1096 18.0679 51.3738C18.0679 51.6908 17.9622 51.9021 17.7509 52.1134Z" fill="#252D35"/>
<path d="M19.6527 52.6417H20.6037L20.1282 51.2153L19.6527 52.6417ZM21.0263 53.9096L20.815 53.2757H19.4414L19.2301 53.9096H18.4905L19.7056 50.4229H20.5509L21.766 53.9096H21.0263Z" fill="#252D35"/>
<path d="M24.249 50.4229H24.9358V53.9096H24.249V52.4832H22.9282V53.9096H22.2415V50.4229H22.9282V51.7964H24.249V50.4229Z" fill="#252D35"/>
<path d="M26.5736 52.9588C26.7849 53.1701 27.0491 53.2758 27.3661 53.2758C27.683 53.2758 27.9472 53.1701 28.1585 52.9588C28.3698 52.7475 28.4755 52.4833 28.4755 52.1135C28.4755 51.7965 28.3698 51.4796 28.1585 51.2682C27.9472 51.0569 27.683 50.9513 27.3661 50.9513C27.0491 50.9513 26.7849 51.0569 26.5736 51.2682C26.3623 51.4796 26.2566 51.7437 26.2566 52.1135C26.2038 52.4833 26.3094 52.7475 26.5736 52.9588ZM28.634 53.4343C28.2642 53.8041 27.8415 53.9626 27.3661 53.9626C26.8377 53.9626 26.4151 53.8041 26.0981 53.4343C25.7283 53.0645 25.5698 52.6418 25.5698 52.1663C25.5698 51.638 25.7283 51.2154 26.0981 50.8984C26.4679 50.5286 26.8906 50.3701 27.3661 50.3701C27.8944 50.3701 28.317 50.5286 28.634 50.8984C29.0038 51.2682 29.1623 51.6909 29.1623 52.1663C29.1623 52.6946 29.0038 53.1173 28.634 53.4343Z" fill="#252D35"/>
<path d="M32.6489 53.2757C32.7546 53.2757 32.8602 53.2229 32.9131 53.17C32.9659 53.1172 33.0187 53.0115 33.0187 52.853C33.0187 52.7474 32.9659 52.6417 32.9131 52.5361C32.8602 52.4832 32.7546 52.4304 32.6489 52.4304H31.8565V53.2757H32.6489ZM32.5433 51.0568H31.8565V51.8493H32.5433C32.6489 51.8493 32.7546 51.7964 32.8074 51.7436C32.8602 51.6908 32.9131 51.5851 32.9131 51.4795C32.9131 51.3738 32.8602 51.2681 32.8074 51.2153C32.7546 51.1096 32.6489 51.0568 32.5433 51.0568ZM33.2829 52.1134C33.5999 52.2719 33.7584 52.5361 33.7584 52.9059C33.7584 53.2229 33.6527 53.4342 33.4414 53.6455C33.2301 53.8568 32.9659 53.9096 32.6489 53.9096H31.1697V50.4229H32.5433C32.8602 50.4229 33.0716 50.5285 33.2829 50.687C33.4942 50.8455 33.5999 51.1096 33.5999 51.3738C33.5999 51.6908 33.4942 51.9021 33.2829 52.1134Z" fill="#252D35"/>
<path d="M35.5018 53.9098V53.3815L36.7169 52.1664C36.981 51.9023 37.1395 51.6381 37.1395 51.4796C37.1395 51.3212 37.0867 51.2155 37.0339 51.1627C36.9282 51.057 36.8226 51.057 36.7169 51.057C36.4527 51.057 36.2414 51.2155 36.1358 51.4796L35.449 51.057C35.5546 50.7929 35.7131 50.6344 35.9244 50.5287C36.1358 50.423 36.3471 50.3174 36.6112 50.3174C36.9282 50.3174 37.1924 50.423 37.4037 50.6344C37.615 50.8457 37.7207 51.1098 37.7207 51.4268C37.7207 51.7966 37.5094 52.1664 37.1395 52.5363L36.4527 53.223H37.7735V53.9098H35.5018Z" fill="#252D35"/>
<path d="M39.147 53.0116C39.2527 53.2229 39.464 53.3286 39.6753 53.3286C39.8867 53.3286 40.098 53.2229 40.2036 53.0116C40.3093 52.8003 40.3621 52.5362 40.3621 52.1663C40.3621 51.7965 40.3093 51.5324 40.2036 51.3211C40.098 51.1097 39.8867 51.0041 39.6753 51.0041C39.464 51.0041 39.2527 51.1097 39.147 51.3211C39.0414 51.5324 38.9886 51.7965 38.9886 52.1663C38.9357 52.5362 38.9886 52.8003 39.147 53.0116ZM39.6753 53.9626C39.2527 53.9626 38.8829 53.8041 38.6716 53.4871C38.4074 53.1701 38.3018 52.6946 38.3018 52.1663C38.3018 51.638 38.4074 51.1626 38.6716 50.8456C38.9357 50.5286 39.2527 50.3701 39.6753 50.3701C40.098 50.3701 40.4678 50.5286 40.6791 50.8456C40.9433 51.1626 41.0489 51.638 41.0489 52.1663C41.0489 52.6946 40.9433 53.1701 40.6791 53.4871C40.4678 53.8041 40.098 53.9626 39.6753 53.9626Z" fill="#252D35"/>
<path d="M42.4227 53.0116C42.5283 53.2229 42.7397 53.3286 42.951 53.3286C43.1623 53.3286 43.3736 53.2229 43.4793 53.0116C43.5849 52.8003 43.6378 52.5362 43.6378 52.1663C43.6378 51.7965 43.5849 51.5324 43.4793 51.3211C43.3736 51.1097 43.1623 51.0041 42.951 51.0041C42.7397 51.0041 42.5283 51.1097 42.4227 51.3211C42.317 51.5324 42.2642 51.7965 42.2642 52.1663C42.2114 52.5362 42.2642 52.8003 42.4227 53.0116ZM42.951 53.9626C42.5283 53.9626 42.1585 53.8041 41.9472 53.4871C41.6831 53.1701 41.5774 52.6946 41.5774 52.1663C41.5774 51.638 41.6831 51.1626 41.9472 50.8456C42.2114 50.5286 42.5283 50.3701 42.951 50.3701C43.3736 50.3701 43.7434 50.5286 43.9548 50.8456C44.2189 51.1626 44.3246 51.638 44.3246 52.1663C44.3246 52.6946 44.2189 53.1701 43.9548 53.4871C43.7434 53.8041 43.3736 53.9626 42.951 53.9626Z" fill="#252D35"/>
<path d="M46.2792 51.8492C46.4905 51.902 46.7018 52.0605 46.8603 52.219C47.0188 52.3775 47.0716 52.5888 47.0716 52.8529C47.0716 53.2228 46.966 53.4869 46.7018 53.6982C46.4377 53.9095 46.1735 54.0152 45.8037 54.0152C45.5396 54.0152 45.2754 53.9624 45.0641 53.8039C44.8528 53.6982 44.6943 53.4869 44.5886 53.2756L45.1698 52.9586C45.2754 53.2228 45.4339 53.3812 45.8037 53.3812C45.9622 53.3812 46.1207 53.3284 46.2264 53.2756C46.332 53.1699 46.3849 53.0643 46.3849 52.9058C46.3849 52.7473 46.332 52.6416 46.2264 52.536C46.1207 52.4303 46.015 52.4303 45.8037 52.4303H45.6452L45.3811 52.0077L46.0679 51.1095H44.6943V50.4756H46.9132V51.0567L46.2792 51.8492Z" fill="#252D35"/>
<path d="M1.95472 46.091H18.6491L8.50566 31.3514V10.5363L33.0717 46.091H44.7472L33.4943 29.8721L44.6943 25.9627V16.8759L28.4226 22.5287L23.4038 15.291L44.6943 7.84196V3.1929H1.90189V46.091H1.95472ZM46.6491 47.9929H0V1.29102H46.6491V47.9929Z" fill="#252D35"/>
</svg>
