<svg width="40" height="40" viewBox="0 0 40 40" fill="none" xmlns="http://www.w3.org/2000/svg">
<path d="M20.32 26.32C19.86 26.32 15.9 26.24 13.22 23.44C11.47 21.61 10.67 19.07 10.85 15.9L10.94 14.39L12.3 15.06C12.31 15.07 13 15.41 13.74 15.75C13.84 12.96 14.8 7.45998 20.68 5.49998L22.25 4.97998L21.97 6.59998C21.69 8.34998 21.7 11.2 22.61 11.78C23.06 12.06 24 11.76 25.19 10.95L26.45 10.1L26.74 11.59C26.76 11.69 27.1 13.56 26.27 15.73C26.86 15.63 27.48 15.47 27.92 15.2L29.6 14.19L29.44 16.14C29.15 19.57 26.89 26.11 20.38 26.32H20.36C20.35 26.32 20.34 26.32 20.32 26.32ZM12.85 17.53C12.98 19.4 13.58 20.91 14.65 22.03C16.78 24.27 20.15 24.31 20.32 24.31C24.93 24.16 26.58 19.97 27.15 17.58C25.89 17.87 24.71 17.86 24.52 17.85L22.67 17.81L23.72 16.29C24.41 15.29 24.68 14.26 24.77 13.46C23.48 14.02 22.4 14.02 21.52 13.46C19.91 12.43 19.72 9.83998 19.81 8.02998C15.02 10.71 15.71 16.86 15.75 17.15L15.95 18.78L14.41 18.21C14 18.06 13.41 17.79 12.85 17.53Z" fill="#B8884B"/>
<path d="M36 16C36 7.16 28.84 0 20 0C11.16 0 4 7.16 4 16C4 23.07 8.58 29.06 14.93 31.18V38H12.81V40H27.19V38H25.07V31.18C31.42 29.06 36 23.07 36 16ZM20 2C27.72 2 34 8.28 34 16C34 19.5 32.71 22.7 30.57 25.16L10.84 5.43C13.3 3.29 16.5 2 20 2ZM16.93 38V31.71C17.93 31.9 18.95 32 20 32C21.05 32 22.07 31.9 23.07 31.71V38H16.93ZM20 30C12.28 30 6 23.72 6 16C6 12.5 7.29 9.3 9.43 6.84L29.16 26.57C26.7 28.71 23.5 30 20 30Z" fill="#01305E"/>
</svg>
