<svg width="40" height="40" viewBox="0 0 40 40" fill="none" xmlns="http://www.w3.org/2000/svg">
<g clip-path="url(#clip0_730_2256)">
<path d="M22.6101 24V29H17.6101V24H22.6101ZM23.6101 22H16.6101C16.0601 22 15.6101 22.45 15.6101 23V31H24.6101V23C24.6101 22.45 24.1601 22 23.6101 22Z" fill="#B8884B"/>
<path d="M34.72 24V29H29.72V24H34.72ZM35.72 22H28.72C28.17 22 27.72 22.45 27.72 23V31H36.72V23C36.72 22.45 36.28 22 35.72 22Z" fill="#B8884B"/>
<path d="M40.0001 2H0C0 2 8.5488e-05 1.55 8.5488e-05 1C8.5488e-05 0.45 0.000102356 0 0.000102356 0H40.0001C40.0001 0 40.0001 0.45 40.0001 1C40.0001 1.55 40.0001 2 40.0001 2Z" fill="#01305E"/>
<path d="M7 1.16992H5V6.16992H7V1.16992Z" fill="#01305E"/>
<path d="M14 1H12V6H14V1Z" fill="#01305E"/>
<path d="M17.68 9.75H1.21997V11.75H17.68V9.75Z" fill="#01305E"/>
<path d="M34.5 31C36.43 31 38 32.57 38 34.5C38 36.43 36.43 38 34.5 38H5.5C3.57 38 2 36.43 2 34.5C2 32.57 3.57 31 5.5 31H34.5ZM34.5 29H5.5C2.46 29 0 31.46 0 34.5C0 37.54 2.46 40 5.5 40H34.5C37.54 40 40 37.54 40 34.5C40 31.46 37.54 29 34.5 29Z" fill="#01305E"/>
<path d="M19 11.24V14.59C19 14.86 18.89 15.11 18.71 15.3L14 20H12.89V18H13.17L17 14.17V11.47L14.76 7H4.24L2 11.47V14.17L5.83 18H6V20H5L0.29 15.29C0.11 15.11 0 14.85 0 14.59V11.24C0 11.08 0.04 10.93 0.11 10.79L2.73 5.55C2.89 5.21 3.24 5 3.62 5H15.38C15.76 5 16.11 5.21 16.27 5.55L18.89 10.79C18.96 10.93 19 11.08 19 11.24Z" fill="#01305E"/>
<path d="M20.0901 35.5C20.6424 35.5 21.0901 35.0523 21.0901 34.5C21.0901 33.9477 20.6424 33.5 20.0901 33.5C19.5378 33.5 19.0901 33.9477 19.0901 34.5C19.0901 35.0523 19.5378 35.5 20.0901 35.5Z" fill="#01305E"/>
<path d="M20 31C21.93 31 23.5 32.57 23.5 34.5C23.5 36.43 21.93 38 20 38C18.07 38 16.5 36.43 16.5 34.5C16.5 32.57 18.07 31 20 31ZM20 29C16.96 29 14.5 31.46 14.5 34.5C14.5 37.54 16.96 40 20 40C23.04 40 25.5 37.54 25.5 34.5C25.5 31.46 23.04 29 20 29Z" fill="#01305E"/>
<path d="M5.5 35.5C6.05228 35.5 6.5 35.0523 6.5 34.5C6.5 33.9477 6.05228 33.5 5.5 33.5C4.94772 33.5 4.5 33.9477 4.5 34.5C4.5 35.0523 4.94772 35.5 5.5 35.5Z" fill="#01305E"/>
<path d="M5.5 31C7.43 31 9 32.57 9 34.5C9 36.43 7.43 38 5.5 38C3.57 38 2 36.43 2 34.5C2 32.57 3.57 31 5.5 31ZM5.5 29C2.46 29 0 31.46 0 34.5C0 37.54 2.46 40 5.5 40C8.54 40 11 37.54 11 34.5C11 31.46 8.54 29 5.5 29Z" fill="#01305E"/>
<path d="M34.5 35.5C35.0523 35.5 35.5 35.0523 35.5 34.5C35.5 33.9477 35.0523 33.5 34.5 33.5C33.9477 33.5 33.5 33.9477 33.5 34.5C33.5 35.0523 33.9477 35.5 34.5 35.5Z" fill="#01305E"/>
<path d="M34.5 31C36.43 31 38 32.57 38 34.5C38 36.43 36.43 38 34.5 38C32.57 38 31 36.43 31 34.5C31 32.57 32.57 31 34.5 31ZM34.5 29C31.46 29 29 31.46 29 34.5C29 37.54 31.46 40 34.5 40C37.54 40 40 37.54 40 34.5C40 31.46 37.54 29 34.5 29Z" fill="#01305E"/>
<path d="M12 16.2798V21.2798H7V16.2798H12ZM12.22 14.2798H6C5.45 14.2798 5 14.7298 5 15.2798V22.2798C5 22.8298 5.45 23.2798 6 23.2798H13C13.55 23.2798 14 22.8298 14 22.2798V15.2798C14 14.7298 13.55 14.2798 13 14.2798H12.22Z" fill="#B8884B"/>
</g>
<defs>
<clipPath id="clip0_730_2256">
<rect width="40" height="40" fill="white"/>
</clipPath>
</defs>
</svg>
