<svg width="40" height="40" viewBox="0 0 40 40" fill="none" xmlns="http://www.w3.org/2000/svg">
<path d="M23.0898 11.5V14.28H10.8198V11.5H23.0898ZM25.0898 9.5H8.81982V16.28H25.0998V9.5H25.0898Z" fill="#B8884B"/>
<path d="M25.0898 19.27H8.81982V21.27H25.0898V19.27Z" fill="#B8884B"/>
<path d="M25.0898 4.5H17.0698V6.5H25.0898V4.5Z" fill="#B8884B"/>
<path d="M14.8198 26.27V29.05H10.8198V26.27H14.8198ZM16.8198 24.27H8.81982V31.05H16.8198V24.27Z" fill="#B8884B"/>
<path d="M37.68 25.06L37.61 24.45L30.2 21.65L29.91 21.54V0H9.08L4 5.54V36H22.87C24.18 37.76 26.1 39.34 28.92 40C38.86 37.65 37.69 25.19 37.68 25.06ZM9.96 2H10.94V4.98H7.23L9.96 2ZM6 34V6.98H12.94V2H27.91V21.54L20.22 24.45L20.16 25.06C20.15 25.14 19.71 29.84 21.67 34H6ZM28.92 37.94C27.54 37.54 26.43 36.79 25.55 36C24.88 35.41 24.34 34.72 23.9 34C22.09 31.02 22.05 27.33 22.11 25.88L27.91 23.68L28.2 23.57L28.92 23.3L29.91 23.68L30.2 23.79L35.73 25.88C35.83 28.14 35.65 36 28.92 37.94Z" fill="#01305E"/>
<path d="M27.97 33.34L24.29 30.1L25.61 28.6L27.87 30.59L32.13 26.27L33.56 27.68L27.97 33.34Z" fill="#01305E"/>
</svg>
